<mxfile host="app.diagrams.net" modified="2022-01-15T05:14:37.727Z" agent="5.0 (Windows NT 10.0; Win64; x64) AppleWebKit/537.36 (KHTML, like Gecko) Chrome/97.0.4692.71 Safari/537.36" etag="pjO-c4_XJEwoCTJqCqDI" version="16.2.4" type="github">
  <diagram id="ZxHcsco9b7L7-rvQ7Xql" name="Page-1">
    <mxGraphModel dx="2115" dy="-23" grid="1" gridSize="10" guides="1" tooltips="1" connect="1" arrows="1" fold="1" page="1" pageScale="1" pageWidth="827" pageHeight="1169" math="0" shadow="0">
      <root>
        <mxCell id="84KTpsVSsy3dv5a97gq0-0" />
        <mxCell id="84KTpsVSsy3dv5a97gq0-1" parent="84KTpsVSsy3dv5a97gq0-0" />
        <mxCell id="ULyehuTYYwsjFRRzDHKz-53" value="" style="edgeStyle=orthogonalEdgeStyle;rounded=0;html=1;jettySize=auto;orthogonalLoop=1;plain-blue;endArrow=none;endFill=0;strokeWidth=4;strokeColor=#000000;sketch=1;" parent="84KTpsVSsy3dv5a97gq0-1" source="ULyehuTYYwsjFRRzDHKz-55" target="ULyehuTYYwsjFRRzDHKz-57" edge="1">
          <mxGeometry x="1103.3200000000002" y="1722" as="geometry" />
        </mxCell>
        <mxCell id="ULyehuTYYwsjFRRzDHKz-54" style="edgeStyle=orthogonalEdgeStyle;curved=1;rounded=0;html=1;exitX=1;exitY=0.5;exitPerimeter=0;entryX=0;entryY=0.5;entryPerimeter=0;endArrow=none;endFill=0;jettySize=auto;orthogonalLoop=1;strokeWidth=4;fontSize=15;sketch=1;" parent="84KTpsVSsy3dv5a97gq0-1" source="ULyehuTYYwsjFRRzDHKz-55" target="ULyehuTYYwsjFRRzDHKz-61" edge="1">
          <mxGeometry relative="1" as="geometry" />
        </mxCell>
        <mxCell id="ULyehuTYYwsjFRRzDHKz-55" value="" style="verticalLabelPosition=bottom;verticalAlign=top;html=1;strokeWidth=4;shape=mxgraph.flowchart.on-page_reference;plain-blue;gradientColor=none;fillColor=#B5E3Fe;strokeColor=#000000;" parent="84KTpsVSsy3dv5a97gq0-1" vertex="1">
          <mxGeometry x="1073.3200000000002" y="1707" width="30" height="30" as="geometry" />
        </mxCell>
        <mxCell id="ULyehuTYYwsjFRRzDHKz-56" value="" style="edgeStyle=orthogonalEdgeStyle;curved=1;rounded=0;orthogonalLoop=1;jettySize=auto;html=1;endArrow=none;endFill=0;strokeWidth=4;fontFamily=Courier New;fontSize=16;" parent="84KTpsVSsy3dv5a97gq0-1" source="ULyehuTYYwsjFRRzDHKz-57" edge="1">
          <mxGeometry relative="1" as="geometry">
            <mxPoint x="1392.5700000000002" y="1722" as="targetPoint" />
          </mxGeometry>
        </mxCell>
        <mxCell id="ULyehuTYYwsjFRRzDHKz-57" value="" style="verticalLabelPosition=bottom;verticalAlign=top;html=1;strokeWidth=4;shape=mxgraph.flowchart.on-page_reference;plain-blue;gradientColor=none;strokeColor=#000000;" parent="84KTpsVSsy3dv5a97gq0-1" vertex="1">
          <mxGeometry x="1311.5700000000002" y="1707" width="30" height="30" as="geometry" />
        </mxCell>
        <mxCell id="ULyehuTYYwsjFRRzDHKz-58" value="" style="edgeStyle=orthogonalEdgeStyle;curved=1;rounded=0;orthogonalLoop=1;jettySize=auto;html=1;endArrow=openThin;endFill=0;strokeWidth=4;fontFamily=Courier New;fontSize=16;startArrow=none;startFill=0;sketch=1;" parent="84KTpsVSsy3dv5a97gq0-1" edge="1">
          <mxGeometry relative="1" as="geometry">
            <mxPoint x="1341.5700000000002" y="1721.5" as="sourcePoint" />
            <mxPoint x="1960" y="1722" as="targetPoint" />
            <Array as="points">
              <mxPoint x="1478.8200000000002" y="1722" />
              <mxPoint x="1478.8200000000002" y="1722" />
            </Array>
          </mxGeometry>
        </mxCell>
        <mxCell id="ULyehuTYYwsjFRRzDHKz-59" value="" style="edgeStyle=orthogonalEdgeStyle;rounded=0;html=1;jettySize=auto;orthogonalLoop=1;strokeWidth=4;endArrow=none;endFill=0;sketch=1;" parent="84KTpsVSsy3dv5a97gq0-1" target="ULyehuTYYwsjFRRzDHKz-55" edge="1">
          <mxGeometry x="1003.3200000000002" y="1722" as="geometry">
            <mxPoint x="958.8200000000002" y="1722" as="sourcePoint" />
          </mxGeometry>
        </mxCell>
        <mxCell id="ULyehuTYYwsjFRRzDHKz-60" style="rounded=0;html=1;exitX=1;exitY=0.5;exitPerimeter=0;entryX=0;entryY=0.5;entryPerimeter=0;endArrow=none;endFill=0;jettySize=auto;orthogonalLoop=1;strokeWidth=4;fontSize=15;sketch=1;" parent="84KTpsVSsy3dv5a97gq0-1" source="ULyehuTYYwsjFRRzDHKz-61" edge="1">
          <mxGeometry relative="1" as="geometry">
            <mxPoint x="1218.3200000000002" y="1802" as="targetPoint" />
          </mxGeometry>
        </mxCell>
        <mxCell id="ULyehuTYYwsjFRRzDHKz-61" value="" style="verticalLabelPosition=bottom;verticalAlign=top;html=1;strokeWidth=4;shape=mxgraph.flowchart.on-page_reference;plain-purple;gradientColor=none;strokeColor=#000000;fillColor=#D5E8D4;" parent="84KTpsVSsy3dv5a97gq0-1" vertex="1">
          <mxGeometry x="1146.3200000000002" y="1787" width="30" height="30" as="geometry" />
        </mxCell>
        <mxCell id="ULyehuTYYwsjFRRzDHKz-62" style="edgeStyle=orthogonalEdgeStyle;curved=1;rounded=0;html=1;entryX=0;entryY=0.5;entryPerimeter=0;endArrow=none;endFill=0;jettySize=auto;orthogonalLoop=1;strokeWidth=4;fontSize=15;sketch=1;" parent="84KTpsVSsy3dv5a97gq0-1" target="ULyehuTYYwsjFRRzDHKz-57" edge="1">
          <mxGeometry relative="1" as="geometry">
            <mxPoint x="1250.8200000000002" y="1802" as="sourcePoint" />
          </mxGeometry>
        </mxCell>
        <mxCell id="ULyehuTYYwsjFRRzDHKz-63" value="&lt;b&gt;M&lt;/b&gt;" style="whiteSpace=wrap;html=1;verticalAlign=top;fillColor=#D5E8D4;strokeColor=#000000;strokeWidth=4;gradientColor=none;" parent="84KTpsVSsy3dv5a97gq0-1" vertex="1">
          <mxGeometry x="1220.3200000000002" y="1787" width="30" height="30" as="geometry" />
        </mxCell>
        <mxCell id="ULyehuTYYwsjFRRzDHKz-64" value="&lt;div&gt;&lt;b&gt;&lt;font style=&quot;font-size: 13px&quot;&gt;M&lt;/font&gt;&lt;/b&gt;&lt;/div&gt;" style="whiteSpace=wrap;html=1;verticalAlign=top;fillColor=#DAE8FC;strokeColor=#000000;strokeWidth=4;gradientColor=none;align=center;" parent="84KTpsVSsy3dv5a97gq0-1" vertex="1">
          <mxGeometry x="1392.5700000000002" y="1707" width="30" height="30" as="geometry" />
        </mxCell>
        <mxCell id="ULyehuTYYwsjFRRzDHKz-65" value="" style="edgeStyle=orthogonalEdgeStyle;curved=1;rounded=0;orthogonalLoop=1;jettySize=auto;html=1;endArrow=none;endFill=0;strokeWidth=4;fontFamily=Courier New;fontSize=16;exitX=0.5;exitY=0;exitDx=0;exitDy=0;sketch=1;entryX=0.5;entryY=1;entryDx=0;entryDy=0;entryPerimeter=0;" parent="84KTpsVSsy3dv5a97gq0-1" source="ULyehuTYYwsjFRRzDHKz-64" target="ULyehuTYYwsjFRRzDHKz-66" edge="1">
          <mxGeometry relative="1" as="geometry">
            <mxPoint x="1432.5700000000002" y="1675" as="sourcePoint" />
            <mxPoint x="1470.8200000000002" y="1595" as="targetPoint" />
          </mxGeometry>
        </mxCell>
        <mxCell id="ULyehuTYYwsjFRRzDHKz-66" value="" style="verticalLabelPosition=bottom;verticalAlign=top;html=1;strokeWidth=4;shape=mxgraph.flowchart.on-page_reference;strokeColor=#2D7600;fillColor=#60a917;fontColor=#ffffff;" parent="84KTpsVSsy3dv5a97gq0-1" vertex="1">
          <mxGeometry x="1480.3200000000002" y="1515" width="30" height="30" as="geometry" />
        </mxCell>
        <mxCell id="ULyehuTYYwsjFRRzDHKz-67" value="&lt;font style=&quot;font-size: 17px&quot;&gt;master&lt;/font&gt;" style="text;html=1;strokeColor=none;fillColor=none;align=center;verticalAlign=middle;whiteSpace=wrap;overflow=hidden;fontSize=14;fontStyle=1;fontFamily=Courier New;" parent="84KTpsVSsy3dv5a97gq0-1" vertex="1">
          <mxGeometry x="836.57" y="1707" width="70" height="20" as="geometry" />
        </mxCell>
        <mxCell id="ULyehuTYYwsjFRRzDHKz-68" value="&lt;font style=&quot;font-size: 17px&quot;&gt;development&lt;/font&gt;" style="text;html=1;strokeColor=none;fillColor=none;align=center;verticalAlign=middle;whiteSpace=wrap;overflow=hidden;fontSize=14;fontStyle=1;fontFamily=Courier New;" parent="84KTpsVSsy3dv5a97gq0-1" vertex="1">
          <mxGeometry x="836.57" y="1790" width="121.62" height="20" as="geometry" />
        </mxCell>
        <mxCell id="ULyehuTYYwsjFRRzDHKz-69" value="&lt;font style=&quot;font-size: 17px&quot;&gt;release&lt;/font&gt;" style="text;html=1;strokeColor=none;fillColor=none;align=center;verticalAlign=middle;whiteSpace=wrap;overflow=hidden;fontSize=14;fontStyle=1;fontFamily=Courier New;" parent="84KTpsVSsy3dv5a97gq0-1" vertex="1">
          <mxGeometry x="836.57" y="1518" width="81.62" height="20" as="geometry" />
        </mxCell>
        <mxCell id="ULyehuTYYwsjFRRzDHKz-70" value="&lt;font style=&quot;font-size: 15px&quot;&gt;New development start&lt;/font&gt;" style="shape=callout;whiteSpace=wrap;html=1;perimeter=calloutPerimeter;fontSize=16;position2=0.1;rotation=0;base=13;size=40;position=0.26;snapToPoint=0;rounded=0;shadow=0;sketch=1;direction=west;" parent="84KTpsVSsy3dv5a97gq0-1" vertex="1">
          <mxGeometry x="977.44" y="1767" width="163" height="60" as="geometry" />
        </mxCell>
        <mxCell id="ULyehuTYYwsjFRRzDHKz-71" value="&lt;font style=&quot;font-size: 14px&quot;&gt;UAT Start&lt;/font&gt;" style="shape=callout;whiteSpace=wrap;html=1;perimeter=calloutPerimeter;fontSize=16;position2=1;rotation=0;base=11;size=30;position=0.61;snapToPoint=0;rounded=0;shadow=0;sketch=1;direction=west;arcSize=15;" parent="84KTpsVSsy3dv5a97gq0-1" vertex="1">
          <mxGeometry x="1281.5700000000002" y="1767" width="90" height="50" as="geometry" />
        </mxCell>
        <mxCell id="ULyehuTYYwsjFRRzDHKz-72" value="&lt;font style=&quot;font-size: 14px&quot;&gt;UAT Complete&lt;/font&gt;" style="shape=callout;whiteSpace=wrap;html=1;perimeter=calloutPerimeter;fontSize=16;position2=0.94;rotation=0;base=11;size=50;position=0.56;snapToPoint=0;rounded=0;shadow=0;sketch=1;direction=east;arcSize=15;" parent="84KTpsVSsy3dv5a97gq0-1" vertex="1">
          <mxGeometry x="1305.0700000000002" y="1582.5" width="109" height="75" as="geometry" />
        </mxCell>
        <mxCell id="ULyehuTYYwsjFRRzDHKz-73" style="rounded=0;sketch=1;orthogonalLoop=1;jettySize=auto;html=1;fontSize=15;endArrow=none;endFill=0;dashed=1;entryX=0.5;entryY=1;entryDx=0;entryDy=0;entryPerimeter=0;" parent="84KTpsVSsy3dv5a97gq0-1" source="ULyehuTYYwsjFRRzDHKz-74" target="ULyehuTYYwsjFRRzDHKz-61" edge="1">
          <mxGeometry relative="1" as="geometry">
            <mxPoint x="1150" y="1820" as="targetPoint" />
          </mxGeometry>
        </mxCell>
        <mxCell id="ULyehuTYYwsjFRRzDHKz-74" value="&lt;span style=&quot;font-size: 16px&quot;&gt;feature/Dev20220117_LoanPayments&lt;/span&gt;" style="text;html=1;strokeColor=#82b366;fillColor=#d5e8d4;align=center;verticalAlign=middle;whiteSpace=wrap;overflow=hidden;rounded=0;shadow=0;sketch=1;fontSize=15;" parent="84KTpsVSsy3dv5a97gq0-1" vertex="1">
          <mxGeometry x="1015.07" y="1862" width="290" height="20" as="geometry" />
        </mxCell>
        <mxCell id="ULyehuTYYwsjFRRzDHKz-76" value="&lt;span style=&quot;text-align: center ; background-color: rgb(248 , 249 , 250)&quot;&gt;UAT20220117_LoanPayments&lt;/span&gt;" style="shape=image;html=1;verticalAlign=middle;verticalLabelPosition=middle;labelBackgroundColor=#ffffff;imageAspect=0;aspect=fixed;image=https://cdn1.iconfinder.com/data/icons/32-soft-media-icons--Vol-2/33/tag.png;rounded=0;shadow=0;sketch=1;fontSize=13;fillColor=none;gradientColor=none;direction=east;rotation=0;textDirection=ltr;labelPosition=right;align=left;" parent="84KTpsVSsy3dv5a97gq0-1" vertex="1">
          <mxGeometry x="1267.38" y="1747" width="20" height="20" as="geometry" />
        </mxCell>
        <mxCell id="ULyehuTYYwsjFRRzDHKz-77" value="&lt;span style=&quot;text-align: center ; background-color: rgb(248 , 249 , 250)&quot;&gt;Rel20220117_LoanPayments&lt;/span&gt;" style="shape=image;html=1;verticalAlign=middle;verticalLabelPosition=middle;labelBackgroundColor=#ffffff;imageAspect=0;aspect=fixed;image=https://cdn1.iconfinder.com/data/icons/32-soft-media-icons--Vol-2/33/tag.png;rounded=0;shadow=0;sketch=1;fontSize=13;fillColor=none;gradientColor=none;direction=east;rotation=0;textDirection=ltr;labelPosition=right;align=left;" parent="84KTpsVSsy3dv5a97gq0-1" vertex="1">
          <mxGeometry x="1399.3799999999999" y="1670" width="20" height="20" as="geometry" />
        </mxCell>
        <mxCell id="ULyehuTYYwsjFRRzDHKz-78" value="&lt;span style=&quot;font-size: 16px&quot;&gt;release/Rel20220117_LoanPayments&lt;/span&gt;" style="text;html=1;strokeColor=#82b366;fillColor=#97D077;align=center;verticalAlign=middle;whiteSpace=wrap;overflow=hidden;rounded=0;shadow=0;sketch=1;fontSize=15;" parent="84KTpsVSsy3dv5a97gq0-1" vertex="1">
          <mxGeometry x="1231.63" y="1460" width="290" height="20" as="geometry" />
        </mxCell>
        <mxCell id="ULyehuTYYwsjFRRzDHKz-79" style="rounded=0;sketch=1;orthogonalLoop=1;jettySize=auto;html=1;fontSize=15;endArrow=none;endFill=0;dashed=1;" parent="84KTpsVSsy3dv5a97gq0-1" target="ULyehuTYYwsjFRRzDHKz-78" edge="1">
          <mxGeometry relative="1" as="geometry">
            <mxPoint x="1480" y="1520" as="sourcePoint" />
            <mxPoint x="1495.8200000000002" y="1515" as="targetPoint" />
          </mxGeometry>
        </mxCell>
        <mxCell id="ULyehuTYYwsjFRRzDHKz-80" value="" style="verticalLabelPosition=bottom;verticalAlign=top;html=1;strokeWidth=4;shape=mxgraph.flowchart.on-page_reference;plain-blue;gradientColor=#EA6B66;strokeColor=#B85450;fillColor=#F8CECC;" parent="84KTpsVSsy3dv5a97gq0-1" vertex="1">
          <mxGeometry x="1612.1900000000003" y="1605" width="30" height="30" as="geometry" />
        </mxCell>
        <mxCell id="ULyehuTYYwsjFRRzDHKz-81" style="rounded=0;orthogonalLoop=1;jettySize=auto;html=1;exitX=0.855;exitY=0.855;exitDx=0;exitDy=0;exitPerimeter=0;entryX=0;entryY=0.5;entryDx=0;entryDy=0;entryPerimeter=0;endArrow=classicThin;endFill=1;strokeWidth=4;fontFamily=Courier New;fontColor=#009900;edgeStyle=orthogonalEdgeStyle;curved=1;" parent="84KTpsVSsy3dv5a97gq0-1" source="ULyehuTYYwsjFRRzDHKz-66" target="ULyehuTYYwsjFRRzDHKz-80" edge="1">
          <mxGeometry relative="1" as="geometry">
            <mxPoint x="1558.1900000000003" y="1555.65" as="sourcePoint" />
            <mxPoint x="1626.5399999999997" y="1639" as="targetPoint" />
            <Array as="points">
              <mxPoint x="1506.19" y="1620" />
            </Array>
          </mxGeometry>
        </mxCell>
        <mxCell id="ULyehuTYYwsjFRRzDHKz-82" style="edgeStyle=orthogonalEdgeStyle;curved=1;rounded=0;orthogonalLoop=1;jettySize=auto;html=1;entryX=0.5;entryY=0;entryDx=0;entryDy=0;entryPerimeter=0;endArrow=none;endFill=0;strokeWidth=4;fontFamily=Courier New;fontColor=#009900;startArrow=classic;startFill=1;exitX=1;exitY=0.5;exitDx=0;exitDy=0;exitPerimeter=0;" parent="84KTpsVSsy3dv5a97gq0-1" source="ULyehuTYYwsjFRRzDHKz-66" target="ULyehuTYYwsjFRRzDHKz-80" edge="1">
          <mxGeometry relative="1" as="geometry">
            <mxPoint x="1562.5400000000002" y="1545" as="sourcePoint" />
            <mxPoint x="1770.7899999999997" y="1579" as="targetPoint" />
          </mxGeometry>
        </mxCell>
        <mxCell id="ULyehuTYYwsjFRRzDHKz-83" style="edgeStyle=orthogonalEdgeStyle;curved=1;rounded=0;orthogonalLoop=1;jettySize=auto;html=1;exitX=1;exitY=0.5;exitDx=0;exitDy=0;exitPerimeter=0;endArrow=classicThin;endFill=1;strokeWidth=4;fontFamily=Courier New;fontColor=#009900;fillColor=#f8cecc;strokeColor=#b85450;" parent="84KTpsVSsy3dv5a97gq0-1" source="ULyehuTYYwsjFRRzDHKz-80" edge="1">
          <mxGeometry relative="1" as="geometry">
            <mxPoint x="1618.1900000000003" y="1575" as="sourcePoint" />
            <mxPoint x="1728.19" y="1725" as="targetPoint" />
          </mxGeometry>
        </mxCell>
        <mxCell id="ULyehuTYYwsjFRRzDHKz-84" value="Hotfix Sigoff" style="edgeLabel;html=1;align=center;verticalAlign=middle;resizable=0;points=[];labelBorderColor=default;fontSize=12;" parent="ULyehuTYYwsjFRRzDHKz-83" vertex="1" connectable="0">
          <mxGeometry x="0.1937" y="-14" relative="1" as="geometry">
            <mxPoint as="offset" />
          </mxGeometry>
        </mxCell>
        <mxCell id="ULyehuTYYwsjFRRzDHKz-85" value="&lt;span style=&quot;font-size: 16px&quot;&gt;hotfix/Rel20220117_LoanPayments&lt;/span&gt;" style="text;html=1;strokeColor=#b85450;fillColor=#f8cecc;align=center;verticalAlign=middle;whiteSpace=wrap;overflow=hidden;rounded=0;shadow=0;sketch=1;fontSize=15;" parent="84KTpsVSsy3dv5a97gq0-1" vertex="1">
          <mxGeometry x="1617.44" y="1525" width="290" height="20" as="geometry" />
        </mxCell>
        <mxCell id="ULyehuTYYwsjFRRzDHKz-86" style="rounded=0;sketch=1;orthogonalLoop=1;jettySize=auto;html=1;fontSize=15;endArrow=none;endFill=0;dashed=1;entryX=0.5;entryY=1;entryDx=0;entryDy=0;exitX=0.855;exitY=0.145;exitDx=0;exitDy=0;exitPerimeter=0;" parent="84KTpsVSsy3dv5a97gq0-1" source="ULyehuTYYwsjFRRzDHKz-80" target="ULyehuTYYwsjFRRzDHKz-85" edge="1">
          <mxGeometry relative="1" as="geometry">
            <mxPoint x="1627" y="1610" as="sourcePoint" />
            <mxPoint x="1718.1933333333336" y="1515" as="targetPoint" />
          </mxGeometry>
        </mxCell>
        <mxCell id="ULyehuTYYwsjFRRzDHKz-87" value="&lt;span style=&quot;font-size: 14px&quot;&gt;Hotfix&lt;/span&gt;" style="shape=callout;whiteSpace=wrap;html=1;perimeter=calloutPerimeter;fontSize=16;position2=0.45;rotation=0;base=10;size=30;position=0.5;snapToPoint=0;rounded=0;shadow=0;sketch=1;direction=west;arcSize=15;" parent="84KTpsVSsy3dv5a97gq0-1" vertex="1">
          <mxGeometry x="1488.66" y="1595" width="60" height="50" as="geometry" />
        </mxCell>
        <mxCell id="ULyehuTYYwsjFRRzDHKz-88" value="&lt;font style=&quot;font-size: 14px&quot;&gt;Hotfix Complete&lt;/font&gt;" style="shape=callout;whiteSpace=wrap;html=1;perimeter=calloutPerimeter;fontSize=16;position2=0.36;rotation=0;base=11;size=50;position=0.56;snapToPoint=0;rounded=0;shadow=0;sketch=1;direction=east;arcSize=15;" parent="84KTpsVSsy3dv5a97gq0-1" vertex="1">
          <mxGeometry x="1533.19" y="1460" width="109" height="75" as="geometry" />
        </mxCell>
        <mxCell id="ULyehuTYYwsjFRRzDHKz-89" value="&lt;font style=&quot;font-size: 17px&quot;&gt;hotfix&lt;/font&gt;" style="text;html=1;strokeColor=none;fillColor=none;align=center;verticalAlign=middle;whiteSpace=wrap;overflow=hidden;fontSize=14;fontStyle=1;fontFamily=Courier New;" parent="84KTpsVSsy3dv5a97gq0-1" vertex="1">
          <mxGeometry x="836.57" y="1611" width="81.62" height="20" as="geometry" />
        </mxCell>
        <mxCell id="ULyehuTYYwsjFRRzDHKz-97" style="edgeStyle=orthogonalEdgeStyle;curved=1;rounded=0;html=1;exitX=1;exitY=0.5;exitPerimeter=0;entryX=0;entryY=0.5;entryPerimeter=0;endArrow=none;endFill=0;jettySize=auto;orthogonalLoop=1;strokeWidth=4;fontSize=15;sketch=1;" parent="84KTpsVSsy3dv5a97gq0-1" source="ULyehuTYYwsjFRRzDHKz-98" target="ULyehuTYYwsjFRRzDHKz-102" edge="1">
          <mxGeometry relative="1" as="geometry" />
        </mxCell>
        <mxCell id="ULyehuTYYwsjFRRzDHKz-98" value="" style="verticalLabelPosition=bottom;verticalAlign=top;html=1;strokeWidth=4;shape=mxgraph.flowchart.on-page_reference;plain-blue;gradientColor=none;fillColor=#B5E3Fe;strokeColor=#000000;" parent="84KTpsVSsy3dv5a97gq0-1" vertex="1">
          <mxGeometry x="1550.3200000000002" y="1707" width="30" height="30" as="geometry" />
        </mxCell>
        <mxCell id="ULyehuTYYwsjFRRzDHKz-99" value="" style="verticalLabelPosition=bottom;verticalAlign=top;html=1;strokeWidth=4;shape=mxgraph.flowchart.on-page_reference;plain-blue;gradientColor=none;strokeColor=#000000;" parent="84KTpsVSsy3dv5a97gq0-1" vertex="1">
          <mxGeometry x="1870.5700000000002" y="1707" width="30" height="30" as="geometry" />
        </mxCell>
        <mxCell id="ULyehuTYYwsjFRRzDHKz-101" style="rounded=0;html=1;exitX=1;exitY=0.5;exitPerimeter=0;entryX=0;entryY=0.5;endArrow=none;endFill=0;jettySize=auto;orthogonalLoop=1;strokeWidth=4;fontSize=15;sketch=1;entryDx=0;entryDy=0;" parent="84KTpsVSsy3dv5a97gq0-1" source="ULyehuTYYwsjFRRzDHKz-102" target="ULyehuTYYwsjFRRzDHKz-113" edge="1">
          <mxGeometry relative="1" as="geometry">
            <mxPoint x="1695.3200000000002" y="1802" as="targetPoint" />
          </mxGeometry>
        </mxCell>
        <mxCell id="ULyehuTYYwsjFRRzDHKz-102" value="" style="verticalLabelPosition=bottom;verticalAlign=top;html=1;strokeWidth=4;shape=mxgraph.flowchart.on-page_reference;plain-purple;gradientColor=none;strokeColor=#000000;fillColor=#D5E8D4;" parent="84KTpsVSsy3dv5a97gq0-1" vertex="1">
          <mxGeometry x="1623.3200000000002" y="1787" width="30" height="30" as="geometry" />
        </mxCell>
        <mxCell id="ULyehuTYYwsjFRRzDHKz-103" style="edgeStyle=orthogonalEdgeStyle;curved=1;rounded=0;html=1;entryX=0;entryY=0.5;entryPerimeter=0;endArrow=none;endFill=0;jettySize=auto;orthogonalLoop=1;strokeWidth=4;fontSize=15;sketch=1;exitX=1;exitY=0.5;exitDx=0;exitDy=0;" parent="84KTpsVSsy3dv5a97gq0-1" source="ULyehuTYYwsjFRRzDHKz-104" target="ULyehuTYYwsjFRRzDHKz-99" edge="1">
          <mxGeometry relative="1" as="geometry">
            <mxPoint x="1727.8200000000002" y="1802" as="sourcePoint" />
          </mxGeometry>
        </mxCell>
        <mxCell id="ULyehuTYYwsjFRRzDHKz-104" value="&lt;b&gt;M&lt;/b&gt;" style="whiteSpace=wrap;html=1;verticalAlign=top;fillColor=#D5E8D4;strokeColor=#000000;strokeWidth=4;gradientColor=none;" parent="84KTpsVSsy3dv5a97gq0-1" vertex="1">
          <mxGeometry x="1784.3200000000002" y="1787" width="30" height="30" as="geometry" />
        </mxCell>
        <mxCell id="ULyehuTYYwsjFRRzDHKz-105" value="&lt;font style=&quot;font-size: 15px&quot;&gt;New development start&lt;/font&gt;" style="shape=callout;whiteSpace=wrap;html=1;perimeter=calloutPerimeter;fontSize=16;position2=0.1;rotation=0;base=13;size=40;position=0.26;snapToPoint=0;rounded=0;shadow=0;sketch=1;direction=west;" parent="84KTpsVSsy3dv5a97gq0-1" vertex="1">
          <mxGeometry x="1454.44" y="1767" width="163" height="60" as="geometry" />
        </mxCell>
        <mxCell id="ULyehuTYYwsjFRRzDHKz-106" style="rounded=0;sketch=1;orthogonalLoop=1;jettySize=auto;html=1;entryX=0.5;entryY=1;entryDx=0;entryDy=0;entryPerimeter=0;fontSize=15;endArrow=none;endFill=0;dashed=1;" parent="84KTpsVSsy3dv5a97gq0-1" source="ULyehuTYYwsjFRRzDHKz-107" target="ULyehuTYYwsjFRRzDHKz-102" edge="1">
          <mxGeometry relative="1" as="geometry" />
        </mxCell>
        <mxCell id="ULyehuTYYwsjFRRzDHKz-107" value="&lt;span style=&quot;font-size: 16px&quot;&gt;feature/Dev20220325_APHReporting&lt;/span&gt;" style="text;html=1;strokeColor=#82b366;fillColor=#d5e8d4;align=center;verticalAlign=middle;whiteSpace=wrap;overflow=hidden;rounded=0;shadow=0;sketch=1;fontSize=15;" parent="84KTpsVSsy3dv5a97gq0-1" vertex="1">
          <mxGeometry x="1493.3200000000002" y="1862" width="290" height="20" as="geometry" />
        </mxCell>
        <mxCell id="ULyehuTYYwsjFRRzDHKz-113" value="&lt;b&gt;M&lt;/b&gt;" style="whiteSpace=wrap;html=1;verticalAlign=top;fillColor=#D5E8D4;strokeColor=#000000;strokeWidth=4;gradientColor=none;" parent="84KTpsVSsy3dv5a97gq0-1" vertex="1">
          <mxGeometry x="1700" y="1787" width="30" height="30" as="geometry" />
        </mxCell>
        <mxCell id="ULyehuTYYwsjFRRzDHKz-116" style="rounded=0;html=1;exitX=1;exitY=0.5;endArrow=none;endFill=0;jettySize=auto;orthogonalLoop=1;strokeWidth=4;fontSize=15;sketch=1;exitDx=0;exitDy=0;entryX=0;entryY=0.5;entryDx=0;entryDy=0;" parent="84KTpsVSsy3dv5a97gq0-1" source="ULyehuTYYwsjFRRzDHKz-113" target="ULyehuTYYwsjFRRzDHKz-104" edge="1">
          <mxGeometry relative="1" as="geometry">
            <mxPoint x="1753" y="1810" as="targetPoint" />
            <mxPoint x="1730.0000000000002" y="1799.5" as="sourcePoint" />
          </mxGeometry>
        </mxCell>
        <mxCell id="ULyehuTYYwsjFRRzDHKz-118" style="edgeStyle=orthogonalEdgeStyle;curved=1;rounded=0;orthogonalLoop=1;jettySize=auto;html=1;exitX=1;exitY=0.5;exitDx=0;exitDy=0;exitPerimeter=0;endArrow=classicThin;endFill=1;strokeWidth=4;fontFamily=Courier New;fontColor=#009900;fillColor=#f8cecc;strokeColor=#b85450;" parent="84KTpsVSsy3dv5a97gq0-1" edge="1">
          <mxGeometry relative="1" as="geometry">
            <mxPoint x="1730.0000000000005" y="1722" as="sourcePoint" />
            <mxPoint x="1760" y="1800" as="targetPoint" />
          </mxGeometry>
        </mxCell>
        <mxCell id="ULyehuTYYwsjFRRzDHKz-121" value="&lt;span style=&quot;text-align: center ; background-color: rgb(248 , 249 , 250)&quot;&gt;UAT20220325_LoanPayments&lt;/span&gt;" style="shape=image;html=1;verticalAlign=middle;verticalLabelPosition=middle;labelBackgroundColor=#ffffff;imageAspect=0;aspect=fixed;image=https://cdn1.iconfinder.com/data/icons/32-soft-media-icons--Vol-2/33/tag.png;rounded=0;shadow=0;sketch=1;fontSize=13;fillColor=none;gradientColor=none;direction=east;rotation=0;textDirection=ltr;labelPosition=right;align=left;" parent="84KTpsVSsy3dv5a97gq0-1" vertex="1">
          <mxGeometry x="1830" y="1754" width="20" height="20" as="geometry" />
        </mxCell>
        <mxCell id="ZhSO84Uctp8xHZLFIqNB-0" style="edgeStyle=orthogonalEdgeStyle;curved=1;rounded=0;orthogonalLoop=1;jettySize=auto;html=1;endArrow=classicThin;endFill=1;strokeWidth=4;fontFamily=Courier New;fontColor=#009900;fillColor=#f8cecc;strokeColor=#b85450;" parent="84KTpsVSsy3dv5a97gq0-1" edge="1">
          <mxGeometry relative="1" as="geometry">
            <mxPoint x="1172.25" y="1515" as="sourcePoint" />
            <mxPoint x="1464.8200000000002" y="1722" as="targetPoint" />
          </mxGeometry>
        </mxCell>
        <mxCell id="ZhSO84Uctp8xHZLFIqNB-4" value="" style="verticalLabelPosition=bottom;verticalAlign=top;html=1;strokeWidth=4;shape=mxgraph.flowchart.on-page_reference;strokeColor=#2D7600;fillColor=#60a917;fontColor=#ffffff;" parent="84KTpsVSsy3dv5a97gq0-1" vertex="1">
          <mxGeometry x="1142.2500000000002" y="1495" width="30" height="30" as="geometry" />
        </mxCell>
        <mxCell id="ZhSO84Uctp8xHZLFIqNB-5" value="Bunu da ekle" style="whiteSpace=wrap;html=1;" parent="84KTpsVSsy3dv5a97gq0-1" vertex="1">
          <mxGeometry x="1020" y="1490" width="120" height="30" as="geometry" />
        </mxCell>
        <mxCell id="ZhSO84Uctp8xHZLFIqNB-6" style="edgeStyle=orthogonalEdgeStyle;curved=1;rounded=0;orthogonalLoop=1;jettySize=auto;html=1;endArrow=classicThin;endFill=1;strokeWidth=4;fontFamily=Courier New;fontColor=#009900;fillColor=#f8cecc;strokeColor=#b85450;" parent="84KTpsVSsy3dv5a97gq0-1" edge="1">
          <mxGeometry relative="1" as="geometry">
            <mxPoint x="1170" y="1605" as="sourcePoint" />
            <mxPoint x="1358.63" y="1722" as="targetPoint" />
          </mxGeometry>
        </mxCell>
        <mxCell id="ZhSO84Uctp8xHZLFIqNB-8" value="Bunu da ekle" style="whiteSpace=wrap;html=1;" parent="84KTpsVSsy3dv5a97gq0-1" vertex="1">
          <mxGeometry x="1052.25" y="1590" width="120" height="30" as="geometry" />
        </mxCell>
      </root>
    </mxGraphModel>
  </diagram>
</mxfile>
